<?xml version="1.0" encoding="UTF-8"?>
<svg xmlns="http://www.w3.org/2000/svg" viewBox="0 0 151 150" width="151" height="150">
<path d="M44.9 0.96C52.13 0.12 55.24 3.82 60.37 7.78C68.14 13.78 75.2 21.07 82.31 27.86C92.34 37.41 108.37 48 113.87 60.89C115.37 64.42 115.98 68.07 116.86 71.83C118.91 80.61 113.68 89.64 109.17 96.32C105.62 101.56 100.28 106.24 95.36 110.21C92.43 112.57 89.71 115.57 87.04 118.21C81.78 123.43 75.68 128.03 70.31 133.14C64.96 138.24 56.05 148.93 48.5 149.2C39.16 149.53 29.24 140.21 35.08 130.56C37.81 126.05 43.65 122.1 47.64 118.79C53.82 113.67 60.24 107.77 65.7 101.89C68.99 98.34 73.19 95.83 76.29 92.09C82.22 84.94 89.41 83.42 88.94 72.5C88.72 67.42 79.65 61.69 76.47 58.01C73.92 55.05 70.69 52.92 67.96 50.21C57.96 40.3 45.56 31.32 36.31 20.85C29.82 13.5 35.8 2.01 44.9 0.96Z" fill="#818181" fill-rule="evenodd" stroke="#818181" stroke-width="0.25" stroke-linejoin="round"/>
</svg>